# xmcd
#
# Track frame offsets:
#	150
#	16339
#	38233
#	56974
#	91828
#	112109
#	127284
#	145952
#	164732
#	174350
#	186001
#	199373
#	220457
#	235835
#	256862
#	274244
#	295700
#	313745
#	335880
#
# Disc length: 4712 seconds
#
# Revision: 0
# Processed by: cddbd v1.5.2PL0 Copyright (c) Steve Scherf et al.
# Submitted via: EZCDAudioConverter 1.0.8.1
#
DISCID=33126613
DTITLE=Vesa-Matti Loiri - Lauluni aiheet I Legenda cd2
DYEAR=1900
DGENRE=
TTITLE0=Vesa-Matti Loiri - Nocturne
TTITLE1=Vesa-Matti Loiri - Albatrossi
TTITLE2=Vesa-Matti Loiri - Hetken tie on kevyt
TTITLE3=Vesa-Matti Loiri - Juokse sinä humma
TTITLE4=Vesa-Matti Loiri - Filosofeeraava ylioppilas
TTITLE5=Vesa-Matti Loiri - Anttilan keväthuumaus – Sjösalavals
TTITLE6=Johanna Kurkela ja Vesa-Matti Loiri - Kaiken nähnyt
TTITLE7=Vesa-Matti Loiri - Peltoniemen Hintriikan surumarssi
TTITLE8=Vesa-Matti Loiri - Ja vuodet ne käy
TTITLE9=Vesa-Matti Loiri - Kosolan tulolaulu
TTITLE10=Vesa-Matti Loiri - Maininkeja
TTITLE11=Vesa-Matti Loiri - Oi, muistatko vielä sen virren
TTITLE12=Vesa-Matti Loiri - Pyhä toimitus
TTITLE13=Vesa-Matti Loiri - Ei ole Kööpenhamina kuin ennen
TTITLE14=Vesa-Matti Loiri - Reppu ja reissumies
TTITLE15=Vesa-Matti Loiri - Kotkan poikii ilman siipii
TTITLE16=Vesa-Matti Loiri - Elegia
TTITLE17=Vesa-Matti Loiri - Vaiennut viulu
TTITLE18=Vesa-Matti Loiri - Tuomittuna kulkemaan (bonus)
EXTD=
EXTT0=
EXTT1=
EXTT2=
EXTT3=
EXTT4=
EXTT5=
EXTT6=
EXTT7=
EXTT8=
EXTT9=
EXTT10=
EXTT11=
EXTT12=
EXTT13=
EXTT14=
EXTT15=
EXTT16=
EXTT17=
EXTT18=
PLAYORDER=
